<svg width="44" height="44" viewBox="0 0 44 44" fill="none" xmlns="http://www.w3.org/2000/svg">
<g clip-path="url(#clip0_1256_3193)">
<path d="M40.3332 8.17711C40.1132 4.00933 28.7587 2.88489 21.9998 2.88489C15.2409 2.88489 3.6665 4.02155 3.6665 8.28711V35.8971C3.6665 40.1627 15.1921 41.3116 21.9998 41.3116C28.8076 41.3116 40.3332 40.1749 40.3332 35.8971V8.17711ZM37.8887 17.4171C37.4854 18.4682 31.7043 20.4116 21.9998 20.4116C17.4608 20.5265 12.9298 19.9663 8.55539 18.7493V21.2916C12.9514 22.3863 17.4699 22.9121 21.9998 22.856C26.8887 22.856 34.1365 22.2693 37.8887 20.4116V26.7304C37.4854 27.7816 31.7043 29.7249 21.9998 29.7249C17.4583 29.8239 12.9273 29.2472 8.55539 28.0138V30.556C12.9514 31.6508 17.4699 32.1766 21.9998 32.1204C26.8887 32.1204 34.1365 31.5338 37.8887 29.676V35.9093C37.4609 36.9604 31.6798 38.9038 21.9998 38.9038C12.3198 38.9038 6.47762 36.9116 6.11095 35.8971V8.336C6.47762 7.33378 12.2221 5.32933 21.9998 5.32933C31.4965 5.32933 37.2287 7.19933 37.8887 8.226C37.2532 9.28933 31.5209 11.1471 21.9998 11.1471C17.4608 11.2602 12.9302 10.7001 8.55539 9.48489V12.0393C12.9525 13.1273 17.4705 13.649 21.9998 13.5916C26.8887 13.5916 34.1365 13.0049 37.8887 11.1471V17.4171Z" fill="#4CAF50"/>
</g>
<defs>
<clipPath id="clip0_1256_3193">
<rect width="44" height="44" fill="white"/>
</clipPath>
</defs>
</svg>
