<svg width="523" height="22" viewBox="0 0 523 22" fill="none" xmlns="http://www.w3.org/2000/svg">
<path d="M0 11L245 11" stroke="#DDDDDD"/>
<path d="M256.948 17.24C255.801 17.24 254.833 16.9867 254.044 16.48C253.255 15.968 252.657 15.2613 252.252 14.36C251.847 13.4587 251.644 12.4187 251.644 11.24C251.644 10.0613 251.847 9.02133 252.252 8.12C252.657 7.21867 253.255 6.51467 254.044 6.008C254.833 5.496 255.801 5.24 256.948 5.24C258.1 5.24 259.068 5.496 259.852 6.008C260.641 6.51467 261.239 7.21867 261.644 8.12C262.055 9.02133 262.26 10.0613 262.26 11.24C262.26 12.4187 262.055 13.4587 261.644 14.36C261.239 15.2613 260.641 15.968 259.852 16.48C259.068 16.9867 258.1 17.24 256.948 17.24ZM256.948 16.112C257.849 16.112 258.601 15.9067 259.204 15.496C259.807 15.0853 260.257 14.5147 260.556 13.784C260.86 13.048 261.012 12.2 261.012 11.24C261.012 10.28 260.86 9.43467 260.556 8.704C260.257 7.97333 259.807 7.40267 259.204 6.992C258.601 6.58133 257.849 6.37333 256.948 6.368C256.047 6.368 255.297 6.57333 254.7 6.984C254.103 7.39467 253.652 7.968 253.348 8.704C253.049 9.43467 252.897 10.28 252.892 11.24C252.887 12.2 253.033 13.0453 253.332 13.776C253.636 14.5013 254.089 15.072 254.692 15.488C255.295 15.8987 256.047 16.1067 256.948 16.112ZM263.862 17V5.48H268.31C268.422 5.48 268.548 5.48533 268.686 5.496C268.83 5.50133 268.974 5.51733 269.118 5.544C269.721 5.63467 270.23 5.84533 270.646 6.176C271.068 6.50133 271.385 6.912 271.598 7.408C271.817 7.904 271.926 8.45333 271.926 9.056C271.926 9.92533 271.697 10.68 271.238 11.32C270.78 11.96 270.124 12.3627 269.27 12.528L268.862 12.624H265.038V17H263.862ZM270.838 17L268.566 12.312L269.694 11.88L272.19 17H270.838ZM265.038 11.504H268.278C268.374 11.504 268.486 11.4987 268.614 11.488C268.742 11.4773 268.868 11.4587 268.99 11.432C269.385 11.3467 269.708 11.184 269.958 10.944C270.214 10.704 270.404 10.4187 270.526 10.088C270.654 9.75733 270.718 9.41333 270.718 9.056C270.718 8.69867 270.654 8.35467 270.526 8.024C270.404 7.688 270.214 7.4 269.958 7.16C269.708 6.92 269.385 6.75733 268.99 6.672C268.868 6.64533 268.742 6.62933 268.614 6.624C268.486 6.61333 268.374 6.608 268.278 6.608H265.038V11.504Z" fill="#959595"/>
<path d="M279 11L523 11" stroke="#DDDDDD"/>
</svg>
