<svg width="44" height="44" viewBox="0 0 44 44" fill="none" xmlns="http://www.w3.org/2000/svg">
<path d="M20.5128 38.8332H17.9425C11.37 38.8332 8.08467 38.8332 6.04233 36.7523C4 34.6715 4 31.322 4 24.6248C4 17.9277 4 14.5782 6.04233 12.4973C8.08467 10.4165 11.37 10.4165 17.9425 10.4165H24.9147C31.4872 10.4165 34.7743 10.4165 36.8167 12.4973C38.3878 14.0978 38.749 16.45 38.8333 20.4998" stroke="#4CAF50" stroke-width="4.13" stroke-linecap="round" stroke-linejoin="round"/>
<path d="M29.6665 10.4164L29.4832 9.84809C28.5757 7.02476 28.1228 5.61309 27.043 4.80642C25.9613 3.99976 24.5277 3.99976 21.6548 3.99976H21.1727C18.3035 3.99976 16.868 3.99976 15.7882 4.80642C14.7065 5.61309 14.2537 7.02476 13.3462 9.84809L13.1665 10.4164M31.7033 24.6339C32.0425 24.3223 32.2112 24.1664 32.4165 24.1664C32.6218 24.1664 32.7905 24.3223 33.1297 24.6339L34.4368 25.8384C34.5945 25.9833 34.6733 26.0566 34.7705 26.0914C34.8695 26.1281 34.9758 26.1244 35.1922 26.1153L36.9558 26.0456C37.4105 26.0273 37.6378 26.0199 37.7937 26.1501C37.9495 26.2803 37.9807 26.5058 38.0412 26.9568L38.2832 28.7644C38.3125 28.9734 38.3253 29.0761 38.3767 29.1678C38.428 29.2558 38.5105 29.3199 38.6755 29.4501L40.0982 30.5684C40.4502 30.8471 40.6262 30.9846 40.661 31.1826C40.6958 31.3806 40.5767 31.5713 40.342 31.9526L39.3777 33.5054C39.2677 33.6833 39.2127 33.7731 39.1943 33.8721C39.176 33.9711 39.198 34.0756 39.242 34.2809L39.6252 36.0739C39.7168 36.5139 39.7645 36.7339 39.6637 36.9099C39.5628 37.0859 39.3483 37.1556 38.9212 37.2949L37.2235 37.8468C37.0218 37.9128 36.9192 37.9458 36.8403 38.0118C36.7615 38.0796 36.712 38.1749 36.6148 38.3638L35.7862 39.9606C35.5753 40.3694 35.469 40.5729 35.2765 40.6426C35.084 40.7123 34.8732 40.6243 34.4478 40.4483L32.8198 39.7736C32.62 39.6911 32.521 39.6489 32.4165 39.6489C32.312 39.6489 32.213 39.6911 32.0132 39.7736L30.3852 40.4483C29.9598 40.6243 29.749 40.7123 29.5565 40.6426C29.364 40.5729 29.2577 40.3676 29.0468 39.9606L28.2182 38.3638C28.1192 38.1749 28.0715 38.0796 27.9927 38.0136C27.9138 37.9476 27.8112 37.9128 27.6095 37.8486L25.9118 37.2949C25.4847 37.1556 25.2702 37.0859 25.1693 36.9099C25.0685 36.7339 25.1143 36.5158 25.2078 36.0739L25.5928 34.2809C25.635 34.0756 25.657 33.9729 25.6387 33.8739C25.6011 33.7413 25.5389 33.6169 25.4553 33.5073L24.4928 31.9526C24.2545 31.5713 24.1372 31.3806 24.172 31.1826C24.2068 30.9846 24.3828 30.8471 24.7348 30.5703L26.1575 29.4519C26.3225 29.3199 26.405 29.2558 26.4563 29.1659C26.5077 29.0761 26.5205 28.9734 26.548 28.7626L26.7918 26.9568C26.8523 26.5076 26.8835 26.2803 27.0393 26.1501C27.1952 26.0199 27.4225 26.0273 27.8772 26.0456L29.6427 26.1153C29.8572 26.1244 29.9635 26.1281 30.0625 26.0914C30.1597 26.0548 30.2385 25.9833 30.3962 25.8384L31.7033 24.6339Z" stroke="#4CAF50" stroke-width="4.13" stroke-linecap="round" stroke-linejoin="round"/>
</svg>
