<svg width="44" height="44" viewBox="0 0 44 44" fill="none" xmlns="http://www.w3.org/2000/svg">
<path d="M32.6064 2.06787L30.1951 9.57941L32.6244 10.09L32.3581 11.4093L27.8679 15.5208L23.4421 11.8147L21.4308 11.463C22.137 10.2315 22.6927 8.64682 22.8406 7.201C23.7016 7.00507 25.8415 6.71331 26.8018 6.33656C26.3723 5.45269 24.2067 4.8837 22.6166 4.9344C22.4677 3.15438 21.8535 2.43757 19.6814 2.53657C17.5093 2.63549 16.8479 3.10385 17.0895 5.66668C15.4682 6.02134 13.8156 6.75086 13.6744 7.99421C14.3507 7.96782 16.5069 7.74533 17.1741 7.73545C17.2308 8.94717 17.5522 10.1286 18.0309 10.8614L15.0095 10.3351L9.10938 16.8367L15.7561 21.6385L15.8958 23.086L12.9576 41.627H16.2554L19.5481 27.0821L23.6622 41.627H26.8823L26.576 40.2171L28.045 41.627L33.4644 13.9095C33.895 13.5193 34.2606 13.1806 34.5037 12.9373C34.5189 12.0318 34.2857 11.3095 34.066 10.8319L34.1494 10.4106L36.4902 10.9025L37.2158 2.90026L35.2525 8.81113L34.3203 8.61725L34.8905 2.37321L33.037 8.35016L32.073 8.14967L32.6064 2.06787ZM34.8905 2.37321L34.8906 2.37235H34.8905V2.37321ZM15.7132 13.1817L15.7427 18.6898L13.0357 16.6488L15.7132 13.1817ZM23.2783 15.008L27.6504 18.9557C27.6504 18.9557 29.6264 17.2837 31.5068 15.6445L26.5708 40.1849L22.8916 23.2098L23.2783 15.008Z" fill="#4CAF50"/>
</svg>
