<svg width="71" height="70" viewBox="0 0 71 70" fill="none" xmlns="http://www.w3.org/2000/svg">
<path fill-rule="evenodd" clip-rule="evenodd" d="M61.662 10.874L60.2226 10.6451L59.8449 9.23633L62.0164 8.653L61.662 10.874ZM42.3828 31.0428L41.1418 31.807L41.1389 31.804L41.1345 31.7967L41.1199 31.7734L41.0703 31.6903L40.8953 31.3884C40.6912 31.0312 40.4943 30.67 40.3047 30.3049C39.7044 29.1573 39.1811 27.971 38.7385 26.7538C38.2455 25.3772 37.8226 23.8007 37.757 22.2753C37.6928 20.7557 37.9758 19.1063 39.1074 17.8128C40.1239 16.652 42.0401 15.583 44.0541 14.6584C46.141 13.6974 48.5968 12.7757 50.9228 11.978C53.8041 10.9942 56.7143 10.0974 59.6495 9.28883L59.7953 9.248L59.8464 9.23342L60.2255 10.6436L61.6649 10.8726L61.6562 10.9265L61.6314 11.0811C61.4858 11.9758 61.3332 12.8693 61.1735 13.7615C60.7849 15.9557 60.361 18.1435 59.9018 20.324C59.3826 22.7755 58.7789 25.3451 58.1387 27.4961C57.8534 28.4796 57.5191 29.4482 57.1368 30.3982C56.8043 31.2003 56.4105 31.979 55.9322 32.5274C54.9085 33.697 53.3145 34.063 51.9218 34.1563C50.4693 34.254 48.8593 34.0776 47.4112 33.8209C46.1196 33.5884 44.8406 33.2915 43.5787 32.9313C43.0623 32.7859 42.5489 32.6303 42.0387 32.4647L41.9468 32.4326L41.922 32.4238L41.9147 32.4224H41.9118L42.3828 31.0428ZM42.3828 31.0428L41.1418 31.807L41.416 32.2517L41.9118 32.4224L42.3828 31.0428ZM43.3628 29.828C44.8563 30.2924 46.3762 30.6673 47.9143 30.9509C49.2618 31.1886 50.6093 31.3228 51.7264 31.247C52.9062 31.1682 53.4983 30.8795 53.736 30.6082C53.8876 30.4332 54.1355 30.019 54.4418 29.2811C54.7851 28.425 55.0854 27.5524 55.3416 26.6663C55.9497 24.6247 56.5345 22.1411 57.0478 19.7217C57.5405 17.381 57.9917 15.0318 58.4012 12.6751L57.9506 12.8063C56.3333 13.2832 54.1487 13.9555 51.8693 14.7372C49.5855 15.5203 47.2333 16.4055 45.2718 17.3082C43.236 18.2445 41.8622 19.0947 41.3022 19.7349C40.8545 20.2453 40.6241 21.0313 40.6722 22.1499C40.7189 23.2626 41.0383 24.527 41.4845 25.768C41.9939 27.1723 42.6223 28.5306 43.3628 29.828ZM15.4664 14.5447L15.0887 15.9534L13.6478 16.1824L13.2949 13.9628L15.4664 14.5447ZM29.586 32.5303L30.827 33.293L30.8299 33.2901L30.8328 33.2842L30.8445 33.2653L30.8868 33.1953L31.0326 32.9474C31.73 31.7296 32.3228 30.4548 32.8045 29.1367C33.2099 28.0051 33.5628 26.694 33.6168 25.4165C33.6722 24.1434 33.436 22.723 32.453 21.6001C31.5839 20.6055 29.9753 19.7188 28.342 18.9663C26.6343 18.1803 24.6291 17.4278 22.7347 16.7788C20.3883 15.9783 18.0184 15.2483 15.6283 14.5899L15.5087 14.5563L15.4664 14.5447L15.0887 15.9534L13.6478 16.1824L13.6551 16.2261L13.6755 16.353L13.7543 16.8284C14.1477 19.1873 14.5906 21.5377 15.0828 23.878C15.5058 25.873 15.9987 27.9686 16.5208 29.7259C16.7833 30.6038 17.0574 31.422 17.3447 32.1117C17.6174 32.768 17.9514 33.4374 18.3714 33.9157C19.2755 34.9511 20.6653 35.2574 21.816 35.3332C23.0293 35.4149 24.3608 35.2676 25.5493 35.059C27.0418 34.7922 28.5136 34.4199 29.9535 33.9449L30.0278 33.9201L30.0497 33.9128L30.057 33.9099L29.586 32.5303ZM29.586 32.5303L30.827 33.293L30.5528 33.7392L30.057 33.9099L29.586 32.5303ZM28.6045 31.314C28.6969 31.1488 28.8048 30.948 28.9283 30.7117C29.2753 30.0438 29.707 29.1338 30.0585 28.1509C30.4158 27.1563 30.6666 26.1574 30.703 25.2926C30.741 24.419 30.5572 23.8634 30.2583 23.5192C29.8455 23.0497 28.781 22.3788 27.1228 21.6161C25.542 20.8884 23.6403 20.1724 21.7883 19.538C20.1749 18.9871 18.5499 18.4707 16.9145 17.9893L16.9203 18.0257C17.1683 19.4257 17.5212 21.3157 17.9368 23.2742C18.3524 25.2372 18.8264 27.2453 19.3164 28.8947C19.5628 29.7201 19.8049 30.4332 20.0383 30.9932C20.2862 31.5867 20.4728 31.8886 20.5662 31.9965C20.6858 32.1322 21.0722 32.3611 22.0114 32.4238C22.8878 32.4822 23.9583 32.3772 25.0433 32.1861C26.2475 31.9699 27.4369 31.6796 28.6045 31.314ZM25.4108 45.2163C25.0403 45.2367 24.8595 45.2892 24.8128 45.3097C24.1522 45.6086 22.1455 46.3086 20.413 46.8992C19.5235 47.204 18.6703 47.4899 18.0403 47.7013L17.9995 47.7159V55.5953C18.2562 55.5836 18.5318 55.5734 18.8133 55.5632C20.0208 55.5195 21.4572 55.4757 22.0799 55.502C24.6933 55.6055 26.6562 56.2238 28.4733 56.797L28.5126 56.8101C30.216 57.3468 31.7939 57.8397 33.8603 57.9957C34.4437 58.0395 35.011 58.0963 35.5403 58.1488H35.5476C37.5805 58.353 38.9193 58.4551 39.9562 58.0788C40.7626 57.7857 43.7158 56.4163 46.6937 54.9186C48.1666 54.1778 49.6103 53.4238 50.758 52.7778C51.3341 52.454 51.8226 52.1653 52.1974 51.9232C52.3831 51.8027 52.5328 51.7006 52.6466 51.617L52.7778 51.5149L52.8187 51.4799C52.9645 51.3326 53.1191 50.8192 52.8683 50.3365C52.7502 50.1108 52.5551 49.9349 52.3185 49.8407C52.0268 49.7138 51.531 49.6161 50.7435 49.7459C48.9672 50.0376 46.8453 50.8922 44.7264 51.754L44.6972 51.7672C43.656 52.1901 42.6118 52.6145 41.6858 52.9236C40.7962 53.2197 39.8089 53.4851 38.9485 53.434C37.7672 53.3611 35.6949 53.0549 33.9858 52.7778C33.0035 52.619 32.0225 52.4527 31.0428 52.279L30.8533 52.2455L30.7862 52.2324L31.0633 49.339L37.7278 49.4192H37.7424C37.8203 49.4109 37.8973 49.3962 37.9728 49.3755C38.2033 49.3172 38.5985 49.1728 39.0958 48.8213C39.2489 48.712 39.4501 48.5107 39.6383 48.2409C39.716 48.1281 39.7821 48.0183 39.8366 47.9113C39.0241 47.859 38.2168 47.7449 37.4216 47.5701C36.9887 47.4758 36.5591 47.3663 36.1339 47.242L36.0843 47.2274L27.922 45.4103L27.8447 45.3972L27.5385 45.3505C27.2049 45.3015 26.8698 45.264 26.5337 45.2382C26.1602 45.2069 25.7851 45.1996 25.4108 45.2163ZM28.2078 43.9826L28.4718 42.549L28.498 42.5534L36.8368 44.4084L36.898 44.4274L36.9097 44.4317L36.9651 44.4478L37.1955 44.5134C37.3983 44.5688 37.6899 44.6447 38.037 44.7205C38.7458 44.8736 39.6324 45.0151 40.452 45.0151C41.273 45.0151 42.1655 45.3213 42.6468 46.1934C43.058 46.9401 42.956 47.748 42.8116 48.2817C42.6773 48.7535 42.4775 49.2042 42.218 49.6205C42.6624 49.4455 43.1319 49.2569 43.6268 49.0547L43.7172 49.0167C45.7268 48.2001 48.136 47.2201 50.2695 46.8686C52.7487 46.4632 54.608 47.3528 55.4583 48.9978C56.2078 50.4488 56.0416 52.3622 54.8968 53.5259C54.6095 53.8176 54.1822 54.1136 53.7739 54.3776C53.2537 54.7066 52.7247 55.0212 52.1872 55.3211C50.9841 55.9978 49.4951 56.7751 48.0018 57.5261C45.0531 59.0092 41.9468 60.4603 40.9493 60.822C39.2197 61.449 37.2189 61.2492 35.4412 61.0713L35.256 61.0524C34.718 60.9972 34.1793 60.9486 33.6401 60.9065C31.2193 60.7228 29.3643 60.138 27.6697 59.6043L27.6333 59.5926C25.8103 59.018 24.1683 58.5061 21.9633 58.4172C21.4791 58.3982 20.1753 58.4332 18.9183 58.4799C18.2104 58.5056 17.5026 58.5342 16.7949 58.5659L16.6068 58.5747L15.0814 58.6447V45.613L16.3603 45.1886C17.3981 44.8437 18.4345 44.4947 19.4695 44.1415C21.2837 43.5217 23.1124 42.8786 23.6112 42.654C24.1464 42.412 24.7545 42.3332 25.2416 42.304C25.7593 42.2749 26.2916 42.2967 26.7568 42.3317C27.3167 42.3765 27.8743 42.4461 28.428 42.5403L28.4587 42.5461H28.4674L28.4703 42.5476H28.4733L28.2078 43.9826Z" fill="black"/>
<path fill-rule="evenodd" clip-rule="evenodd" d="M51.7611 19.3081C51.9066 19.4325 52.0262 19.5845 52.1131 19.7552C52.1999 19.9259 52.2523 20.112 52.2672 20.303C52.2821 20.4939 52.2592 20.6859 52.1999 20.868C52.1406 21.0501 52.046 21.2188 51.9215 21.3643C47.5742 26.4364 42.1623 33.8695 39.7736 39.9114C39.7031 40.0895 39.5982 40.252 39.4649 40.3896C39.3317 40.5271 39.1726 40.6371 38.9968 40.7132C38.8211 40.7893 38.632 40.8301 38.4405 40.8331C38.249 40.8362 38.0587 40.8015 37.8806 40.731C37.7025 40.6605 37.5401 40.5556 37.4025 40.4224C37.2649 40.2891 37.1549 40.13 37.0788 39.9543C37.0027 39.7785 36.962 39.5894 36.9589 39.3979C36.9559 39.2064 36.9906 39.0162 37.0611 38.8381C39.6321 32.3353 45.3021 24.6047 49.7048 19.467C49.9566 19.1735 50.3147 18.992 50.7003 18.9624C51.0859 18.9329 51.4675 19.0577 51.7611 19.3095M22.9298 23.9864C22.7794 24.1051 22.6539 24.2523 22.5604 24.4195C22.4669 24.5867 22.4073 24.7707 22.385 24.961C22.3626 25.1513 22.378 25.3441 22.4302 25.5285C22.4824 25.7128 22.5704 25.885 22.6892 26.0354C25.9588 30.1843 29.5288 35.4941 31.2233 39.8983C31.3688 40.2498 31.6459 40.5305 31.9955 40.6806C32.3451 40.8307 32.7395 40.8382 33.0945 40.7016C33.4496 40.565 33.7372 40.295 33.896 39.9493C34.0548 39.6036 34.0723 39.2096 33.9446 38.8512C32.0911 34.0329 28.3038 28.446 24.9788 24.2299C24.7395 23.9262 24.3894 23.7299 24.0054 23.6842C23.6215 23.6386 23.2337 23.7473 22.9298 23.9864Z" fill="black"/>
<path d="M9.25 42.2915H18V61.2498H9.25V42.2915Z" fill="black"/>
</svg>
