<svg width="71" height="70" viewBox="0 0 71 70" fill="none" xmlns="http://www.w3.org/2000/svg">
<path d="M6.49732 56.9187L24.254 38.9812L33.8498 48.1687L45.5777 37.9166L52.1111 44.2866M64.6673 16.0416C64.6673 14.8813 64.2064 13.7685 63.3859 12.948C62.5654 12.1275 61.4526 11.6666 60.2923 11.6666H10.709C9.54866 11.6666 8.43586 12.1275 7.61539 12.948C6.79492 13.7685 6.33398 14.8813 6.33398 16.0416V29.1666H64.6673V16.0416Z" stroke="black" stroke-width="5.83333" stroke-linecap="round" stroke-linejoin="round"/>
<path d="M64.6673 26.2499V53.9582C64.6673 55.1186 64.2064 56.2314 63.3859 57.0518C62.5654 57.8723 61.4526 58.3332 60.2923 58.3332H18.0007M28.3723 20.4166H54.6223M16.7027 20.4166H19.6194M6.33398 26.2499V39.3749" stroke="black" stroke-width="5.83333" stroke-linecap="round" stroke-linejoin="round"/>
</svg>
