<svg width="44" height="44" viewBox="0 0 44 44" fill="none" xmlns="http://www.w3.org/2000/svg">
<path d="M21.9998 9.44157L7.33317 15.3082V34.8332H10.9998V23.8332C10.9998 22.8249 11.3592 21.962 12.0778 21.2446C12.7965 20.5271 13.6594 20.1678 14.6665 20.1666H29.3332C30.3415 20.1666 31.205 20.5259 31.9237 21.2446C32.6423 21.9632 33.0011 22.8261 32.9998 23.8332V34.8332H36.6665V15.3082L21.9998 9.44157ZM3.6665 34.8332V15.3082C3.6665 14.5443 3.87306 13.8568 4.28617 13.2457C4.69928 12.6346 5.25661 12.1916 5.95817 11.9166L20.6248 6.0499C21.0526 5.86657 21.5109 5.7749 21.9998 5.7749C22.4887 5.7749 22.9471 5.86657 23.3748 6.0499L38.0415 11.9166C38.7443 12.1916 39.3022 12.6346 39.7153 13.2457C40.1284 13.8568 40.3344 14.5443 40.3332 15.3082V34.8332C40.3332 35.8416 39.9744 36.7051 39.257 37.4237C38.5396 38.1424 37.6761 38.5011 36.6665 38.4999H29.3332V23.8332H14.6665V38.4999H7.33317C6.32484 38.4999 5.46195 38.1412 4.7445 37.4237C4.02706 36.7063 3.66773 35.8428 3.6665 34.8332ZM16.4998 38.4999V34.8332H20.1665V38.4999H16.4998ZM20.1665 32.9999V29.3332H23.8332V32.9999H20.1665ZM23.8332 38.4999V34.8332H27.4998V38.4999H23.8332Z" fill="#4CAF50"/>
</svg>
