<svg width="70" height="70" viewBox="0 0 70 70" fill="none" xmlns="http://www.w3.org/2000/svg">
<path d="M67.0833 32.0833H52.5C51.7265 32.0833 50.9846 32.3906 50.4376 32.9376C49.8906 33.4846 49.5833 34.2264 49.5833 35V61.25C49.5833 62.0235 49.8906 62.7654 50.4376 63.3124C50.9846 63.8594 51.7265 64.1667 52.5 64.1667H67.0833C67.8569 64.1667 68.5988 63.8594 69.1457 63.3124C69.6927 62.7654 70 62.0235 70 61.25V35C70 34.2264 69.6927 33.4846 69.1457 32.9376C68.5988 32.3906 67.8569 32.0833 67.0833 32.0833ZM67.0833 58.3333H52.5V37.9167H67.0833V58.3333ZM58.3333 5.83333H5.83333C2.59583 5.83333 0 8.42916 0 11.6667V46.6667C0 48.2138 0.614582 49.6975 1.70854 50.7915C2.80251 51.8854 4.28624 52.5 5.83333 52.5H26.25V58.3333H20.4167V64.1667H43.75V58.3333H37.9167V52.5H43.75V46.6667H5.83333V11.6667H58.3333V26.25H64.1667V11.6667C64.1667 10.1196 63.5521 8.63583 62.4581 7.54187C61.3642 6.44791 59.8804 5.83333 58.3333 5.83333ZM34.9125 26.25L32.0833 17.5L29.2542 26.25H20.4167L27.6208 31.3833L24.8792 39.8708L32.0833 34.6208L39.2875 39.8708L36.5458 31.3833L43.75 26.25H34.9125Z" fill="black"/>
</svg>
