<svg width="70" height="70" viewBox="0 0 70 70" fill="none" xmlns="http://www.w3.org/2000/svg">
<g clip-path="url(#clip0_1494_1270)">
<path d="M45.4387 43.0325C44.3032 41.2346 43.7163 39.1446 43.7501 37.0183C43.7838 34.892 44.4366 32.8217 45.6287 31.0607C46.8207 29.2997 48.5003 27.9243 50.4618 27.103C52.4233 26.2817 54.5817 26.05 56.6729 26.4362C58.764 26.8225 60.6972 27.81 62.2359 29.2778C63.7746 30.7457 64.852 32.6303 65.3363 34.701C65.8206 36.7716 65.6907 38.9385 64.9626 40.9366C64.2346 42.9346 62.9398 44.677 61.2369 45.9506C66.5525 48.8819 70 54.5125 70 61.25V67.8125C70 68.3927 69.7695 68.9491 69.3593 69.3593C68.9491 69.7695 68.3927 70 67.8125 70C67.2323 70 66.6759 69.7695 66.2657 69.3593C65.8555 68.9491 65.625 68.3927 65.625 67.8125V61.25C65.625 53.7075 60.0425 48.125 52.5 48.125C48.5187 48.125 46.8212 48.0375 44.6031 47.5913C39.1344 46.48 34.3963 43.2163 28.9188 36.365C28.7232 36.1429 28.5747 35.8834 28.4823 35.6022C28.39 35.321 28.3556 35.0241 28.3813 34.7292C28.4071 34.4344 28.4924 34.1478 28.6321 33.8869C28.7718 33.626 28.9629 33.3962 29.194 33.2113C29.4251 33.0264 29.6913 32.8904 29.9766 32.8113C30.2618 32.7323 30.56 32.712 30.8533 32.7516C31.1466 32.7912 31.4288 32.8899 31.6829 33.0418C31.9369 33.1936 32.1575 33.3954 32.3312 33.635C36.2687 38.5525 39.5631 41.2475 42.98 42.5731C43.6581 42.8006 44.4894 42.9363 45.4387 43.0325ZM53.2481 43.5925C53.6127 43.6362 53.9787 43.6858 54.3462 43.7412L54.6875 43.75C56.365 43.7463 57.9774 43.1003 59.1935 41.9447C60.4096 40.7892 61.1369 39.2118 61.2262 37.5366C61.3154 35.8615 60.7597 34.2157 59.6733 32.9375C58.5869 31.6593 57.0523 30.8456 55.3846 30.6637C53.717 30.4818 52.043 30.9454 50.7065 31.9593C49.3701 32.9732 48.4727 34.4604 48.1986 36.1154C47.9246 37.7704 48.2947 39.4675 49.233 40.8581C50.1713 42.2487 51.6109 43.2272 53.2481 43.5925ZM42.7875 52.3688C43.3677 52.3688 43.9241 52.5992 44.3343 53.0095C44.7445 53.4197 44.975 53.9761 44.975 54.5563C44.9423 54.9006 44.8689 55.2398 44.7562 55.5669C43.9731 57.2294 43.75 58.9531 43.75 61.2631V67.8256C43.75 68.4058 43.5195 68.9622 43.1093 69.3724C42.6991 69.7827 42.1427 70.0131 41.5625 70.0131C40.9823 70.0131 40.4259 69.7827 40.0157 69.3724C39.6055 68.9622 39.375 68.4058 39.375 67.8256V61.2631C39.375 58.3888 39.69 56.0744 40.7181 53.8431C40.8666 53.4125 41.1458 53.039 41.5168 52.7747C41.8878 52.5104 42.332 52.3685 42.7875 52.3688ZM26.0662 25.2525C26.4076 25.7069 26.5587 26.2763 26.4876 26.8402C26.4165 27.404 26.1287 27.9181 25.6851 28.2735C25.2416 28.6288 24.6772 28.7977 24.1114 28.7442C23.5456 28.6907 23.0228 28.4191 22.6537 27.9869L13.6062 16.6775C13.4107 16.4554 13.2622 16.1959 13.1698 15.9147C13.0775 15.6335 13.0431 15.3366 13.0688 15.0417C13.0946 14.7469 13.1799 14.4603 13.3196 14.1994C13.4593 13.9385 13.6504 13.7087 13.8815 13.5238C14.1126 13.3389 14.3788 13.2029 14.6641 13.1238C14.9493 13.0448 15.2475 13.0245 15.5408 13.0641C15.8341 13.1037 16.1163 13.2025 16.3704 13.3543C16.6244 13.5061 16.845 13.7079 17.0188 13.9475L26.0662 25.2525ZM4.375 48.125H28.4375C29.0177 48.125 29.5741 48.3555 29.9843 48.7657C30.3945 49.1759 30.625 49.7323 30.625 50.3125C30.625 50.8927 30.3945 51.4491 29.9843 51.8593C29.5741 52.2695 29.0177 52.5 28.4375 52.5H2.1875C1.60734 52.5 1.05094 52.2695 0.640704 51.8593C0.230468 51.4491 0 50.8927 0 50.3125V2.1875C0 1.60734 0.230468 1.05094 0.640704 0.640704C1.05094 0.230468 1.60734 0 2.1875 0L54.6875 0C55.2677 0 55.8241 0.230468 56.2343 0.640704C56.6445 1.05094 56.875 1.60734 56.875 2.1875V15.3125C56.875 15.8927 56.6445 16.4491 56.2343 16.8593C55.8241 17.2695 55.2677 17.5 54.6875 17.5C54.1073 17.5 53.5509 17.2695 53.1407 16.8593C52.7305 16.4491 52.5 15.8927 52.5 15.3125V4.375H4.375V48.125Z" fill="black"/>
</g>
<defs>
<clipPath id="clip0_1494_1270">
<rect width="70" height="70" fill="white"/>
</clipPath>
</defs>
</svg>
