<svg width="49" height="48" viewBox="0 0 49 48" fill="none" xmlns="http://www.w3.org/2000/svg">
<rect width="48" height="48" transform="translate(0.5)" fill="white"/>
<path fill-rule="evenodd" clip-rule="evenodd" d="M25.441 27.7536C24.9124 27.4101 24.4567 26.9658 24.0998 26.4462C23.743 25.9265 23.492 25.3417 23.3612 24.725C23.2303 24.1084 23.2223 23.472 23.3374 22.8522C23.4525 22.2324 23.6886 21.6414 24.0322 21.1128L29.2666 13.0656C29.6046 12.5251 30.0469 12.0574 30.5676 11.6896C31.0883 11.3219 31.6771 11.0616 32.2995 10.9239C32.9219 10.7862 33.5656 10.7738 34.1928 10.8876C34.8201 11.0013 35.4184 11.2388 35.9528 11.5863C36.4873 11.9338 36.9472 12.3843 37.3056 12.9114C37.6641 13.4386 37.914 14.0318 38.0407 14.6566C38.1674 15.2813 38.1683 15.9251 38.0435 16.5502C37.9188 17.1754 37.6707 17.7694 37.3138 18.2976L32.0818 26.3472C31.3877 27.4143 30.2981 28.162 29.0527 28.4257C27.8073 28.6895 26.5081 28.4477 25.441 27.7536ZM19.5802 28.2384C18.7748 26.724 18.3898 25.0214 18.4654 23.3078C18.5409 21.5942 19.0742 19.9321 20.0098 18.4944L25.2418 10.4472C26.6301 8.31266 28.8094 6.817 31.3004 6.28927C32.5338 6.02797 33.8067 6.01216 35.0462 6.24276C36.2857 6.47335 37.4677 6.94584 38.5246 7.63323C39.5815 8.32062 40.4927 9.20946 41.2062 10.249C41.9196 11.2885 42.4213 12.4584 42.6826 13.6918C42.9439 14.9253 42.9597 16.1981 42.7291 17.4376C42.4985 18.6771 42.026 19.8591 41.3386 20.916L36.1066 28.9632C35.1962 30.3642 33.936 31.5033 32.4504 32.2679C30.9649 33.0326 29.3055 33.3963 27.6363 33.3231C25.9671 33.2499 24.346 32.7423 22.9331 31.8505C21.5202 30.9588 20.3645 29.7137 19.5802 28.2384Z" fill="#2E6B31"/>
<path fill-rule="evenodd" clip-rule="evenodd" d="M13.566 37.2072C13.0374 36.8637 12.5817 36.4194 12.2248 35.8998C11.868 35.3801 11.617 34.7953 11.4862 34.1786C11.3553 33.5619 11.3473 32.9256 11.4624 32.3058C11.5775 31.686 11.8136 31.095 12.1572 30.5664L17.3916 22.5192C17.7296 21.9787 18.1719 21.5109 18.6926 21.1432C19.2133 20.7755 19.8021 20.5152 20.4245 20.3775C21.0469 20.2398 21.6906 20.2274 22.3178 20.3412C22.9451 20.4549 23.5434 20.6924 24.0778 21.0399C24.6123 21.3874 25.0722 21.8379 25.4306 22.365C25.7891 22.8921 26.039 23.4854 26.1657 24.1102C26.2924 24.7349 26.2933 25.3787 26.1686 26.0038C26.0438 26.629 25.7957 27.223 25.4388 27.7512L20.2068 35.8008C19.5127 36.8679 18.4231 37.6156 17.1777 37.8793C15.9323 38.1431 14.6331 37.9013 13.566 37.2072ZM7.70521 37.692C6.89978 36.1776 6.51482 34.475 6.59037 32.7614C6.66592 31.0478 7.19923 29.3857 8.13481 27.948L13.3668 19.9032C14.054 18.8463 14.9427 17.9351 15.9821 17.2216C17.0215 16.5081 18.1913 16.0063 19.4246 15.7449C20.6579 15.4835 21.9306 15.4676 23.1701 15.698C24.4095 15.9285 25.5915 16.4008 26.6484 17.088C27.7053 17.7753 28.6166 18.6639 29.3301 19.7033C30.0435 20.7427 30.5453 21.9125 30.8067 23.1458C31.0681 24.3791 31.0841 25.6518 30.8536 26.8913C30.6232 28.1307 30.1508 29.3127 29.4636 30.3696L24.2316 38.4168C23.3212 39.8178 22.061 40.9569 20.5754 41.7215C19.0899 42.4862 17.4305 42.8499 15.7613 42.7767C14.0921 42.7035 12.471 42.1959 11.0581 41.3041C9.64516 40.4124 8.48946 39.1673 7.70521 37.692Z" fill="#2E6B31"/>
</svg>
