<svg width="44" height="44" viewBox="0 0 44 44" fill="none" xmlns="http://www.w3.org/2000/svg">
<path d="M35.75 9.62534C33.877 9.62519 32.0204 9.97494 30.2758 10.6566C27.8145 5.5519 22.8422 3.01502 22.6153 2.90159C22.4243 2.80599 22.2136 2.75623 22 2.75623C21.7864 2.75623 21.5757 2.80599 21.3847 2.90159C21.1561 3.01502 16.1855 5.5519 13.7242 10.6566C11.9796 9.97494 10.123 9.62519 8.25 9.62534C7.88533 9.62534 7.53559 9.7702 7.27773 10.0281C7.01987 10.2859 6.875 10.6357 6.875 11.0003V24.7503C6.875 28.7617 8.46852 32.6088 11.305 35.4453C14.1415 38.2818 17.9886 39.8753 22 39.8753C26.0114 39.8753 29.8585 38.2818 32.695 35.4453C35.5315 32.6088 37.125 28.7617 37.125 24.7503V11.0003C37.125 10.6357 36.9801 10.2859 36.7223 10.0281C36.4644 9.7702 36.1147 9.62534 35.75 9.62534ZM20.625 37.0497C17.6012 36.7078 14.8089 35.2653 12.7803 32.9971C10.7516 30.7288 9.62853 27.7934 9.625 24.7503V22.076C12.6488 22.4178 15.4411 23.8604 17.4697 26.1286C19.4984 28.3969 20.6215 31.3323 20.625 34.3753V37.0497ZM20.625 25.6888C19.364 23.8915 17.7269 22.3903 15.8273 21.2894C13.9278 20.1886 11.8113 19.5145 9.625 19.3139V12.451C12.6488 12.7928 15.4411 14.2354 17.4697 16.5036C19.4984 18.7719 20.6215 21.7073 20.625 24.7503V25.6888ZM16.182 11.8786C17.7667 8.5769 20.7212 6.49377 22 5.7083C23.2787 6.49549 26.2333 8.57862 27.8162 11.8786C25.2743 13.4516 23.2515 15.7381 22 18.4528C20.7483 15.7377 18.7249 13.4511 16.182 11.8786ZM34.375 24.7503C34.3715 27.7934 33.2484 30.7288 31.2197 32.9971C29.1911 35.2653 26.3988 36.7078 23.375 37.0497V34.3753C23.3785 31.3323 24.5016 28.3969 26.5303 26.1286C28.5589 23.8604 31.3512 22.4178 34.375 22.076V24.7503ZM34.375 19.3139C32.1887 19.5145 30.0722 20.1886 28.1727 21.2894C26.2731 22.3903 24.636 23.8915 23.375 25.6888V24.7503C23.3785 21.7073 24.5016 18.7719 26.5303 16.5036C28.5589 14.2354 31.3512 12.7928 34.375 12.451V19.3139Z" fill="#4CAF50"/>
</svg>
