<svg width="70" height="70" viewBox="0 0 70 70" fill="none" xmlns="http://www.w3.org/2000/svg">
<path d="M17.838 58.5871C14.1171 55.8823 11.0895 52.3349 9.00292 48.2352C6.91634 44.1356 5.83007 39.6001 5.83301 35C5.83301 18.8912 18.8909 5.83333 34.9997 5.83333C51.1084 5.83333 64.1663 18.8912 64.1663 35C64.1693 39.6001 63.083 44.1356 60.9964 48.2352C58.9099 52.3349 55.8822 55.8823 52.1613 58.5871L49.2009 53.515C53.0696 50.5475 55.9115 46.4427 57.3274 41.7772C58.7434 37.1116 58.6622 32.1197 57.0954 27.5026C55.5285 22.8855 52.5547 18.8753 48.5916 16.0351C44.6286 13.195 39.8754 11.6676 34.9997 11.6676C30.124 11.6676 25.3708 13.195 21.4077 16.0351C17.4447 18.8753 14.4708 22.8855 12.904 27.5026C11.3372 32.1197 11.256 37.1116 12.6719 41.7772C14.0879 46.4427 16.9298 50.5475 20.7984 53.515L17.838 58.5871ZM23.7705 48.4225C21.0143 46.1166 19.0348 43.0182 18.101 39.5481C17.1671 36.0781 17.3241 32.4047 18.5507 29.027C19.7773 25.6492 22.014 22.731 24.9569 20.6688C27.8997 18.6066 31.4062 17.5003 34.9997 17.5003C38.5932 17.5003 42.0996 18.6066 45.0425 20.6688C47.9854 22.731 50.2221 25.6492 51.4487 29.027C52.6753 32.4047 52.8323 36.0781 51.8984 39.5481C50.9645 43.0182 48.985 46.1166 46.2288 48.4225L43.2247 43.2717C44.8632 41.6428 45.9813 39.5642 46.4371 37.2992C46.8929 35.0342 46.6659 32.6848 45.7849 30.549C44.9039 28.4131 43.4086 26.5869 41.4885 25.3019C39.5685 24.0169 37.3101 23.3309 34.9997 23.3309C32.6893 23.3309 30.4309 24.0169 28.5108 25.3019C26.5907 26.5869 25.0954 28.4131 24.2145 30.549C23.3335 32.6848 23.1065 35.0342 23.5623 37.2992C24.0181 39.5642 25.1361 41.6428 26.7747 43.2717L23.7705 48.4225ZM32.083 37.9167H37.9163L40.833 64.1667H29.1663L32.083 37.9167Z" fill="black"/>
</svg>
