<svg width="44" height="44" viewBox="0 0 44 44" fill="none" xmlns="http://www.w3.org/2000/svg">
<path d="M9.59567 14.1716C10.9177 12.0771 12.7486 10.3515 14.9176 9.15577C17.0866 7.96001 19.5232 7.33303 22 7.33329C24.4771 7.33272 26.914 7.95955 29.0834 9.15533C31.2528 10.3511 33.084 12.0769 34.4062 14.1716L37.5045 12.21C35.8515 9.59282 33.5628 7.43682 30.8517 5.94294C28.1406 4.44907 25.0954 3.66596 22 3.66663C18.9049 3.66627 15.86 4.44952 13.1493 5.94338C10.4385 7.43724 8.15013 9.59308 6.49733 12.21L9.59567 14.1716ZM22 36.6666C19.5232 36.6669 17.0866 36.0399 14.9176 34.8441C12.7486 33.6484 10.9177 31.9228 9.59567 29.8283L6.49733 31.79C8.15013 34.4068 10.4385 36.5627 13.1493 38.0565C15.86 39.5504 18.9049 40.3337 22 40.3333C25.0954 40.334 28.1406 39.5509 30.8517 38.057C33.5628 36.5631 35.8515 34.4071 37.5045 31.79L34.4062 29.8283C33.084 31.9231 31.2528 33.6488 29.0834 34.8446C26.914 36.0404 24.4771 36.6672 22 36.6666ZM22 22C23.4587 22 24.8576 21.4205 25.8891 20.389C26.9205 19.3576 27.5 17.9587 27.5 16.5C27.5 15.0413 26.9205 13.6423 25.8891 12.6109C24.8576 11.5794 23.4587 11 22 11C20.5413 11 19.1424 11.5794 18.1109 12.6109C17.0795 13.6423 16.5 15.0413 16.5 16.5C16.5 17.9587 17.0795 19.3576 18.1109 20.389C19.1424 21.4205 20.5413 22 22 22ZM22 23.8333C23.9449 23.8333 25.8102 24.6059 27.1855 25.9812C28.5607 27.3564 29.3333 29.2217 29.3333 31.1666H14.6667C14.6667 29.2217 15.4393 27.3564 16.8146 25.9812C18.1898 24.6059 20.0551 23.8333 22 23.8333ZM11 22C11 23.4587 10.4205 24.8576 9.38909 25.889C8.35764 26.9205 6.95869 27.5 5.5 27.5C4.04131 27.5 2.64236 26.9205 1.61091 25.889C0.579463 24.8576 0 23.4587 0 22C0 20.5413 0.579463 19.1423 1.61091 18.1109C2.64236 17.0794 4.04131 16.5 5.5 16.5C6.95869 16.5 8.35764 17.0794 9.38909 18.1109C10.4205 19.1423 11 20.5413 11 22ZM38.5 27.5C39.9587 27.5 41.3576 26.9205 42.3891 25.889C43.4205 24.8576 44 23.4587 44 22C44 20.5413 43.4205 19.1423 42.3891 18.1109C41.3576 17.0794 39.9587 16.5 38.5 16.5C37.0413 16.5 35.6424 17.0794 34.6109 18.1109C33.5795 19.1423 33 20.5413 33 22C33 23.4587 33.5795 24.8576 34.6109 25.889C35.6424 26.9205 37.0413 27.5 38.5 27.5Z" fill="#4CAF50"/>
</svg>
