<svg width="92" height="71" viewBox="0 0 92 71" fill="none" xmlns="http://www.w3.org/2000/svg">
<path d="M76.9625 58.1563C75.9367 57.5079 74.9237 56.848 73.8899 56.216C71.9965 55.0525 71.1596 53.0593 71.945 51.5459C72.7066 50.0905 74.2288 50.0084 76.2974 51.4643C78.9434 53.3289 81.4993 55.3477 84.1576 57.192C85.5835 58.1787 87.2437 58.7897 88.602 59.8463C89.6354 60.6439 90.8279 61.8495 91.074 62.9137C91.2852 63.8165 90.4632 65.0507 89.685 65.6671C87.6675 67.2775 85.4284 68.6463 83.2547 70.0757C82.6738 70.4599 82.0463 70.9777 81.3567 70.982C80.3427 70.9933 79.2541 70.5941 78.1972 70.3776C78.3485 69.1675 78.0658 67.567 78.7348 66.8191C80.0601 65.3347 81.9084 64.3262 83.6356 63.0409C82.5592 61.8412 81.7871 61.1943 80.8032 62.4822C79.9357 63.6103 78.6076 63.8303 76.9725 63.362C68.5041 60.9441 59.9141 59.1037 51.5976 56.0077C45.79 53.8435 40.2551 50.1491 34.7733 46.7926C31.929 45.0511 29.1877 42.804 26.8855 40.3552C22.601 35.7946 20.2389 30.8015 23.3635 25.5433C19.1518 22.3954 15.0931 19.3671 11.0424 16.3224C7.29266 13.5031 3.66151 10.5681 1.54924 6.27782C1.47976 6.13827 1.30458 6.02024 1.25726 5.87913C0.723915 4.16407 -0.443656 1.97213 1.41498 1.16545C3.42611 0.295226 4.59811 2.40053 5.53767 4.05365C8.17123 8.70189 12.5629 11.5413 16.6245 14.7138C19.3091 16.8099 22.1356 18.7235 24.7658 20.8868C26.146 22.0246 27.1034 22.0367 28.2329 21.2424C34.1892 17.0485 41.3515 17.4356 48.9085 19.7818C52.3184 20.8407 55.0459 23.3389 57.415 26.0489C59.8071 28.7749 59.0286 32.0632 56.4678 33.6659C49.3762 38.1086 41.683 34.9301 33.9624 31.7394C31.8118 30.8528 29.7393 29.6667 27.5971 28.5981C26.2266 30.6739 26.3184 32.6295 27.9821 34.8624C31.5581 39.6647 36.1751 43.1646 41.2471 46.0814C47.5759 49.7237 54.0337 53.0205 60.9151 54.78C66.2185 56.1394 71.5383 57.3004 76.8447 58.5468C76.878 58.4159 76.9113 58.285 76.9446 58.1541L76.9625 58.1563ZM31.446 24.8743C36.8986 28.8722 49.9808 33.5168 54.1725 28.3282C50.624 22.4179 36.9546 20.5409 31.446 24.8743Z" fill="#748975"/>
</svg>
